<svg xmlns="http://www.w3.org/2000/svg" viewBox="0 0 200 200" width="200" height="200">
  <!-- Background Circle -->
  <circle cx="100" cy="100" r="95" fill="url(#gradient1)" />
  
  <!-- Gradient Definition -->
  <defs>
    <linearGradient id="gradient1" x1="0%" y1="0%" x2="100%" y2="100%">
      <stop offset="0%" style="stop-color:#667eea;stop-opacity:1" />
      <stop offset="100%" style="stop-color:#764ba2;stop-opacity:1" />
    </linearGradient>
    
    <linearGradient id="gradient2" x1="0%" y1="0%" x2="100%" y2="100%">
      <stop offset="0%" style="stop-color:#ffffff;stop-opacity:0.95" />
      <stop offset="100%" style="stop-color:#f0f0f0;stop-opacity:0.95" />
    </linearGradient>
  </defs>
  
  <!-- Brain Icon (simplified, modern) -->
  <g transform="translate(100, 85)">
    <!-- Left hemisphere -->
    <path d="M -25,-20 Q -40,-20 -40,-5 Q -40,10 -35,20 Q -30,30 -20,35 Q -10,40 0,40 L 0,-25 Q -12,-25 -20,-22 Q -25,-21 -25,-20 Z" 
          fill="url(#gradient2)" 
          stroke="#ffffff" 
          stroke-width="2"/>
    
    <!-- Right hemisphere -->
    <path d="M 25,-20 Q 40,-20 40,-5 Q 40,10 35,20 Q 30,30 20,35 Q 10,40 0,40 L 0,-25 Q 12,-25 20,-22 Q 25,-21 25,-20 Z" 
          fill="url(#gradient2)" 
          stroke="#ffffff" 
          stroke-width="2"/>
    
    <!-- Neural connections/dots -->
    <circle cx="-25" cy="0" r="3" fill="#667eea" opacity="0.8"/>
    <circle cx="-15" cy="15" r="2.5" fill="#667eea" opacity="0.8"/>
    <circle cx="-8" cy="-10" r="2" fill="#667eea" opacity="0.8"/>
    
    <circle cx="25" cy="0" r="3" fill="#764ba2" opacity="0.8"/>
    <circle cx="15" cy="15" r="2.5" fill="#764ba2" opacity="0.8"/>
    <circle cx="8" cy="-10" r="2" fill="#764ba2" opacity="0.8"/>
    
    <!-- Center connection -->
    <circle cx="0" cy="5" r="3.5" fill="#ffffff" opacity="0.9"/>
  </g>
  
  <!-- Gentle pulse/calm indicator (bottom) -->
  <g transform="translate(100, 145)">
    <!-- Calm wave line -->
    <path d="M -30,0 Q -20,-8 -10,0 T 10,0 T 30,0" 
          fill="none" 
          stroke="#ffffff" 
          stroke-width="3" 
          stroke-linecap="round"
          opacity="0.8"/>
    
    <!-- Small dots for presence -->
    <circle cx="-30" cy="0" r="2.5" fill="#ffffff" opacity="0.9"/>
    <circle cx="0" cy="0" r="2.5" fill="#ffffff" opacity="0.9"/>
    <circle cx="30" cy="0" r="2.5" fill="#ffffff" opacity="0.9"/>
  </g>
  
  <!-- Outer subtle ring for depth -->
  <circle cx="100" cy="100" r="95" fill="none" stroke="#ffffff" stroke-width="3" opacity="0.2"/>
</svg>